<?xml version="1.0" encoding="UTF-8"?>
<svg xmlns="http://www.w3.org/2000/svg" style="display:block;width:100%;max-width:900px;height:auto" viewBox="0 0 920 380"><path d="M 180,180 L 180.00,40.00 A 140,140 0 0,1 252.04,300.04 Z" fill="#07558c" stroke="#fff" stroke-width="2"/><text x="263.6" y="156.8" text-anchor="middle" style="font:700 14px Arial;fill:#08264a"><tspan x="263.6">77</tspan><tspan x="263.6" dy="18">41%</tspan></text><path d="M 180,180 L 252.04,300.04 A 140,140 0 1,1 129.17,49.55 Z" fill="#367fb8" stroke="#fff" stroke-width="2"/><text x="102.1" y="218.2" text-anchor="middle" style="font:700 14px Arial;fill:#08264a"><tspan x="102.1">98</tspan><tspan x="102.1" dy="18">53%</tspan></text><path d="M 180,180 L 129.17,49.55 A 140,140 0 0,1 180.00,40.00 Z" fill="#67a9df" stroke="#fff" stroke-width="2"/><text x="164.0" y="94.7" text-anchor="middle" style="font:700 14px Arial;fill:#08264a"><tspan x="164.0">11</tspan><tspan x="164.0" dy="18">6%</tspan></text><rect x="380" y="20" width="12" height="12" fill="#07558c"/><text x="399" y="30" style="font:13px Arial;fill:#08264a">Licence Creative Commons — 77 (41%)</text><rect x="380" y="45" width="12" height="12" fill="#367fb8"/><text x="399" y="55" style="font:13px Arial;fill:#08264a">Tous droits réservés — 98 (53%)</text><rect x="380" y="70" width="12" height="12" fill="#67a9df"/><text x="399" y="80" style="font:13px Arial;fill:#08264a">Licence CC ou DR variable pour une même publication — 11 (6%)</text></svg>