<?xml version="1.0" encoding="UTF-8"?>
<svg xmlns="http://www.w3.org/2000/svg" style="display:block;width:100%;max-width:540px;height:auto" viewBox="0 0 360 360"><path d="M 180,180 L 180.00,40.00 A 140,140 0 0,1 281.77,83.86 Z" fill="#07558c" stroke="#fff" stroke-width="2"/><text x="214.4" y="100.3" text-anchor="middle" style="font:700 14px Arial;fill:#08264a"><tspan x="214.4">25</tspan><tspan x="214.4" dy="18">13%</tspan></text><path d="M 180,180 L 281.77,83.86 A 140,140 0 0,1 319.77,187.97 Z" fill="#367fb8" stroke="#fff" stroke-width="2"/><text x="261.5" y="150.2" text-anchor="middle" style="font:700 14px Arial;fill:#08264a"><tspan x="261.5">25</tspan><tspan x="261.5" dy="18">13%</tspan></text><path d="M 180,180 L 319.77,187.97 A 140,140 0 0,1 283.33,274.47 Z" fill="#67a9df" stroke="#fff" stroke-width="2"/><text x="260.0" y="213.7" text-anchor="middle" style="font:700 14px Arial;fill:#08264a"><tspan x="260.0">21</tspan><tspan x="260.0" dy="18">11%</tspan></text><path d="M 180,180 L 283.33,274.47 A 140,140 0 0,1 213.84,315.85 Z" fill="#a7d5f5" stroke="#fff" stroke-width="2"/><text x="224.4" y="254.6" text-anchor="middle" style="font:700 14px Arial;fill:#08264a"><tspan x="224.4">18</tspan><tspan x="224.4" dy="18">9%</tspan></text><path d="M 180,180 L 213.84,315.85 A 140,140 0 0,1 155.07,317.76 Z" fill="#8fc1e8" stroke="#fff" stroke-width="2"/><text x="182.8" y="266.8" text-anchor="middle" style="font:700 14px Arial;fill:#08264a"><tspan x="182.8">13</tspan><tspan x="182.8" dy="18">7%</tspan></text><path d="M 180,180 L 155.07,317.76 A 140,140 0 0,1 104.48,297.89 Z" fill="#bdddf4" stroke="#fff" stroke-width="2"/><text x="148.3" y="260.8" text-anchor="middle" style="font:700 14px Arial;fill:#08264a"><tspan x="148.3">12</tspan><tspan x="148.3" dy="18">6%</tspan></text><path d="M 180,180 L 104.48,297.89 A 140,140 0 0,1 67.96,263.94 Z" fill="#4d91c7" stroke="#fff" stroke-width="2"/><text x="120.9" y="243.6" text-anchor="middle" style="font:700 14px Arial;fill:#08264a"><tspan x="120.9">11</tspan><tspan x="120.9" dy="18">6%</tspan></text><path d="M 180,180 L 67.96,263.94 A 140,140 0 0,1 46.99,223.70 Z" fill="#245f92" stroke="#fff" stroke-width="2"/><text x="103.0" y="220.1" text-anchor="middle" style="font:700 14px Arial;fill:#08264a"><tspan x="103.0">10</tspan><tspan x="103.0" dy="18">5%</tspan></text><path d="M 180,180 L 46.99,223.70 A 140,140 0 0,1 40.00,178.86 Z" fill="#07558c" stroke="#fff" stroke-width="2"/><text x="94.2" y="193.4" text-anchor="middle" style="font:700 14px Arial;fill:#08264a"><tspan x="94.2">10</tspan><tspan x="94.2" dy="18">5%</tspan></text><path d="M 180,180 L 40.00,178.86 A 140,140 0 0,1 47.72,134.15 Z" fill="#367fb8" stroke="#fff" stroke-width="2"/><text x="94.5" y="165.2" text-anchor="middle" style="font:700 14px Arial;fill:#08264a"><tspan x="94.5">10</tspan><tspan x="94.5" dy="18">5%</tspan></text><path d="M 180,180 L 47.72,134.15 A 140,140 0 0,1 69.34,94.25 Z" fill="#67a9df" stroke="#fff" stroke-width="2"/><text x="103.7" y="138.7" text-anchor="middle" style="font:700 14px Arial;fill:#08264a"><tspan x="103.7">10</tspan><tspan x="103.7" dy="18">5%</tspan></text><path d="M 180,180 L 69.34,94.25 A 140,140 0 0,1 91.57,71.46 Z" fill="#a7d5f5" stroke="#fff" stroke-width="2"/><path d="M 180,180 L 91.57,71.46 A 140,140 0 0,1 118.38,54.29 Z" fill="#8fc1e8" stroke="#fff" stroke-width="2"/><path d="M 180,180 L 118.38,54.29 A 140,140 0 0,1 143.95,44.72 Z" fill="#bdddf4" stroke="#fff" stroke-width="2"/><path d="M 180,180 L 143.95,44.72 A 140,140 0 0,1 157.31,41.85 Z" fill="#4d91c7" stroke="#fff" stroke-width="2"/><path d="M 180,180 L 157.31,41.85 A 140,140 0 0,1 170.89,40.30 Z" fill="#245f92" stroke="#fff" stroke-width="2"/><path d="M 180,180 L 170.89,40.30 A 140,140 0 0,1 180.00,40.00 Z" fill="#07558c" stroke="#fff" stroke-width="2"/></svg>